<svg width="21" height="21" viewBox="0 0 21 21" fill="none" xmlns="http://www.w3.org/2000/svg">
<path d="M14.6667 2.99993C14.8856 2.78106 15.1455 2.60744 15.4314 2.48899C15.7174 2.37054 16.0239 2.30957 16.3334 2.30957C16.6429 2.30957 16.9494 2.37054 17.2354 2.48899C17.5214 2.60744 17.7812 2.78106 18.0001 2.99993C18.219 3.2188 18.3926 3.47863 18.511 3.7646C18.6295 4.05057 18.6904 4.35706 18.6904 4.66659C18.6904 4.97612 18.6295 5.28262 18.511 5.56859C18.3926 5.85455 18.219 6.11439 18.0001 6.33326L6.75008 17.5833L2.16675 18.8333L3.41675 14.2499L14.6667 2.99993Z" stroke="#667085" stroke-width="1.66667" stroke-linecap="round" stroke-linejoin="round"/>
</svg>
